<?xml version="1.0" encoding="UTF-8"?>
<svg version="1.1" xmlns="http://www.w3.org/2000/svg" width="256" height="256">
<path d="M0 0 C1.63892973 -0.00407285 3.27785671 -0.00941871 4.91677856 -0.01593018 C9.33828176 -0.02952482 13.7595733 -0.02433782 18.18107986 -0.01479292 C22.82572212 -0.00715538 27.47034721 -0.01425324 32.11499023 -0.01895142 C39.91230496 -0.0243971 47.70953421 -0.0172486 55.50683594 -0.00292969 C64.49951369 0.01339453 73.49198734 0.00810518 82.48466015 -0.0084089 C90.22938111 -0.02205769 97.97404091 -0.02392689 105.71877003 -0.0160929 C110.33394017 -0.01143498 114.94901462 -0.01073941 119.56417847 -0.02070236 C123.90471749 -0.02941931 128.24499539 -0.02326452 132.58550644 -0.00601959 C134.17087243 -0.00207985 135.7562607 -0.00314528 137.34161758 -0.00980759 C154.74630681 -0.07616115 168.33354204 3.71768824 181.21484375 15.90380859 C190.33298754 25.799951 195.60429198 37.90181744 195.65107727 51.32460022 C195.65475396 52.0105259 195.65843065 52.69645159 195.66221875 53.4031629 C195.67320678 55.69513387 195.67709113 57.98705943 195.6809082 60.27905273 C195.68717666 61.92532493 195.69382379 63.57159573 195.70082092 65.21786499 C195.72182231 70.61968 195.73222122 76.02149515 195.7421875 81.42333984 C195.74623684 83.28691561 195.75035382 85.15049123 195.75453758 87.0140667 C195.77358244 95.77275731 195.78781367 104.53143955 195.79614955 113.29014689 C195.80591275 123.38047631 195.83221126 133.47058582 195.87265044 143.56083781 C195.90287667 151.37252833 195.91762467 159.18415607 195.92093056 166.99590391 C195.92327405 171.65541474 195.93214247 176.31469047 195.95739174 180.97413826 C195.98079099 185.36304415 195.98485844 189.75156211 195.97463036 194.14051437 C195.97413772 195.74321094 195.9803771 197.34592738 195.9941864 198.94856453 C196.13270483 215.99054184 191.50568797 229.62971511 179.765625 242.28662109 C170.0299416 251.33290376 157.83766134 256.48892861 144.61218262 256.53535461 C143.93104605 256.5390313 143.24990949 256.54270799 142.54813242 256.54649609 C140.27231491 256.55748345 137.99654313 256.56136837 135.72070312 256.56518555 C134.08590553 256.57145411 132.45110934 256.57810126 130.8163147 256.58509827 C125.4517719 256.60610048 120.08722895 256.61649948 114.72265625 256.62646484 C112.87148524 256.63051432 111.02031438 256.6346313 109.16914368 256.63881493 C100.46758216 256.65786093 91.76602908 256.67209123 83.06445074 256.6804269 C73.0431812 256.69018683 63.02213327 256.71647628 53.00094175 256.75692779 C45.24103983 256.78716851 37.48120114 256.80190343 29.72124147 256.80520791 C25.09355606 256.80754999 20.46610754 256.81639966 15.83848572 256.84166908 C11.47830317 256.86509346 7.11851107 256.86912587 2.75828171 256.8589077 C1.16729299 256.85841564 -0.4237159 256.86463742 -2.01464462 256.87846375 C-19.36083428 257.02064923 -33.50101361 252.60943726 -46.39453125 240.64990234 C-55.04207649 231.34334343 -60.59897589 219.28140005 -60.64326477 206.57875061 C-60.64694146 205.89438492 -60.65061815 205.21001922 -60.65440625 204.50491518 C-60.66541709 202.21217214 -60.66928258 199.91947447 -60.6730957 197.62670898 C-60.67936258 195.9822068 -60.68600958 194.33770602 -60.69300842 192.69320679 C-60.71403371 187.29076114 -60.72441294 181.88831527 -60.734375 176.48583984 C-60.73842385 174.6225985 -60.74254082 172.7593573 -60.74672508 170.89611626 C-60.76577748 162.13688621 -60.78000549 153.37766458 -60.78833705 144.6184178 C-60.79809435 134.52808823 -60.82437419 124.43797891 -60.86483794 114.34772688 C-60.89507849 106.53689014 -60.90981364 98.72611622 -60.91311806 90.91522211 C-60.91546051 86.25622336 -60.92431474 81.59745986 -60.94957924 76.93852425 C-60.97300271 72.54798704 -60.97703637 68.15783757 -60.96681786 63.76725388 C-60.96632575 62.16497819 -60.97254906 60.5626825 -60.9863739 58.96046638 C-61.13107495 41.1802354 -56.47325699 26.92900625 -44.17578125 13.78271484 C-31.29235555 2.27026593 -16.76427756 -0.07045023 0 0 Z " fill="#6DB400" transform="translate(60.49609375,-0.38818359375)"/>
<path d="M0 0 C1.84995203 3.69990405 2.77387534 6.75987637 3.75 10.75 C7.74852554 26.22461614 13.65601932 45.29835957 25 57 C27.88044832 57.77428915 27.88044832 57.77428915 31.078125 57.70703125 C32.81835938 57.75053711 32.81835938 57.75053711 34.59375 57.79492188 C36.40359375 57.80362305 36.40359375 57.80362305 38.25 57.8125 C40.08304688 57.85020508 40.08304688 57.85020508 41.953125 57.88867188 C44.96907333 57.94757712 47.98356903 57.98383376 51 58 C50.25556641 56.50726563 50.25556641 56.50726563 49.49609375 54.984375 C45.54394836 46.91280282 42.00655129 38.78586545 39 30.3125 C38.69763428 29.4762207 38.39526855 28.63994141 38.08374023 27.77832031 C37.80860596 26.98135742 37.53347168 26.18439453 37.25 25.36328125 C37.00765625 24.66501221 36.7653125 23.96674316 36.515625 23.24731445 C35.84450446 20.32228389 35.63734161 17.99068971 36 15 C37.86425781 13.14135742 37.86425781 13.14135742 40.453125 11.60546875 C41.84724609 10.76145508 41.84724609 10.76145508 43.26953125 9.90039062 C44.74486328 9.05250977 44.74486328 9.05250977 46.25 8.1875 C47.21808594 7.60291016 48.18617187 7.01832031 49.18359375 6.41601562 C56.95922815 1.78817253 56.95922815 1.78817253 61 1 C61.28609131 1.91064209 61.57218262 2.82128418 61.86694336 3.75952148 C69.42692904 28.2404016 69.42692904 28.2404016 81 51 C81.51216064 52.03825928 82.02432129 53.07651855 82.55200195 54.14624023 C85.16916297 57.19720216 85.41146126 57.42194992 89.12597656 57.77294922 C90.79706038 57.81379607 92.46913674 57.82248019 94.140625 57.8046875 C95.46389801 57.82524704 95.46389801 57.82524704 96.81390381 57.84622192 C99.62645295 57.88355775 102.43723799 57.87980485 105.25 57.875 C107.15888181 57.89312434 109.06774021 57.91392621 110.9765625 57.9375 C115.65207462 57.99441928 120.32295785 57.99575586 125 58 C125 65.59 125 73.18 125 81 C119.06 81.33 113.12 81.66 107 82 C109.45698961 83.81434634 111.91551259 85.62654531 114.375 87.4375 C115.42300781 88.2119043 115.42300781 88.2119043 116.4921875 89.00195312 C117.1625 89.49501953 117.8328125 89.98808594 118.5234375 90.49609375 C119.14138184 90.95169678 119.75932617 91.4072998 120.39599609 91.87670898 C122.01335239 93.06782233 122.01335239 93.06782233 124 94 C122.70795512 96.84303661 121.35098217 98.89759844 119.13671875 101.09375 C118.57919922 101.64933594 118.02167969 102.20492187 117.44726562 102.77734375 C116.86654297 103.34582031 116.28582031 103.91429687 115.6875 104.5 C115.11837891 105.06847656 114.54925781 105.63695312 113.96289062 106.22265625 C110.7879178 109.36482224 107.55335385 112.27998429 104 115 C91.16515543 109.17706577 76.17488918 95.54214825 68.56958008 83.78955078 C67.14401689 81.80243694 67.14401689 81.80243694 64.82348633 81.54589844 C64.00130615 81.5668457 63.17912598 81.58779297 62.33203125 81.609375 C60.99301758 81.62871094 60.99301758 81.62871094 59.62695312 81.6484375 C58.69818359 81.68195313 57.76941406 81.71546875 56.8125 81.75 C55.87212891 81.76804687 54.93175781 81.78609375 53.96289062 81.8046875 C51.64090111 81.8518345 49.3209631 81.91761769 47 82 C48.89357091 83.44056352 50.78972722 84.8774901 52.6875 86.3125 C53.21794922 86.71662109 53.74839844 87.12074219 54.29492188 87.53710938 C57.42740691 89.90088642 60.59558857 92.04830588 64 94 C61.74870068 99.17583065 57.6733054 102.44378595 53.625 106.25 C52.85671875 106.99507813 52.0884375 107.74015625 51.296875 108.5078125 C50.55179687 109.21164063 49.80671875 109.91546875 49.0390625 110.640625 C48.02126709 111.60790527 48.02126709 111.60790527 46.98291016 112.59472656 C45 114 45 114 41 114 C12.41593871 97.77532414 -7.91823124 65.77598449 -19.5 36 C-19.82653564 35.16428467 -20.15307129 34.32856934 -20.48950195 33.4675293 C-22.81502342 27.2081297 -23.7683622 21.77400792 -25 15 C-16.75 10.05 -8.5 5.1 0 0 Z " fill="#000100" transform="translate(70,77)"/>
<path d="M0 0 C9.57 0 19.14 0 29 0 C29 9.57 29 19.14 29 29 C19.43 29 9.86 29 0 29 C0 19.43 0 9.86 0 0 Z " fill="#000000" transform="translate(166,77)"/>
<path d="M0 0 C9.57 0 19.14 0 29 0 C28.01 1.485 28.01 1.485 27 3 C24.50976562 3.35644531 24.50976562 3.35644531 21.40625 3.328125 C19.73755859 3.32039063 19.73755859 3.32039063 18.03515625 3.3125 C16.28525391 3.2815625 16.28525391 3.2815625 14.5 3.25 C13.33339844 3.24484375 12.16679687 3.2396875 10.96484375 3.234375 C2.30825708 3.15412854 2.30825708 3.15412854 0 2 C0 1.34 0 0.68 0 0 Z " fill="#599300" transform="translate(166,106)"/>
<path d="M0 0 C0.66 0.66 1.32 1.32 2 2 C0.44395612 3.61042988 -1.12012756 5.21309368 -2.6875 6.8125 C-3.55761719 7.70582031 -4.42773438 8.59914062 -5.32421875 9.51953125 C-7.78449846 11.8002285 -10.09953943 13.35379265 -13 15 C-14.36984198 16.29579647 -15.7151049 17.61992749 -17 19 C-17.66 18.67 -18.32 18.34 -19 18 C-13.19194647 12.08483073 -7.30456089 6.3827452 -1 1 C-0.67 0.67 -0.34 0.34 0 0 Z " fill="#61A000" transform="translate(133,173)"/>
<path d="M0 0 C3.4372166 -0.11604679 6.87393086 -0.18719508 10.3125 -0.25 C11.28896484 -0.28351563 12.26542969 -0.31703125 13.27148438 -0.3515625 C14.20927734 -0.36445313 15.14707031 -0.37734375 16.11328125 -0.390625 C16.97735596 -0.41157227 17.84143066 -0.43251953 18.73168945 -0.45410156 C21 0 21 0 22.80541992 2.02441406 C23.19963135 2.67635742 23.59384277 3.32830078 24 4 C23.03126953 3.74863281 23.03126953 3.74863281 22.04296875 3.4921875 C17.35998143 2.73473384 12.70375195 3.03310561 7.97460938 3.21484375 C5.73828125 3.2578125 5.73828125 3.2578125 2 3 C1.34 2.01 0.68 1.02 0 0 Z " fill="#5F9D00" transform="translate(116,158)"/>
<path d="M0 0 C6.27 0 12.54 0 19 0 C18.01 1.485 18.01 1.485 17 3 C14.72265625 3.2578125 14.72265625 3.2578125 12.0625 3.125 C8.89207012 2.9849221 7.05293273 2.98235576 4 4 C2.68 2.68 1.36 1.36 0 0 Z " fill="#609E00" transform="translate(176,158)"/>
<path d="M0 0 C5.24569384 3.36262426 10.11528387 7.13564679 15 11 C15.598125 10.67 16.19625 10.34 16.8125 10 C19 9 19 9 22 9 C21.01 10.32 20.02 11.64 19 13 C12.80486508 12.6282919 10.37685585 11.07149382 6 7 C5.34 6.67 4.68 6.34 4 6 C4 5.34 4 4.68 4 4 C2.68 3.34 1.36 2.68 0 2 C0 1.34 0 0.68 0 0 Z " fill="#599400" transform="translate(157,180)"/>
<path d="M0 0 C2.64 1.98 5.28 3.96 8 6 C6.68 6.33 5.36 6.66 4 7 C1.75 5.25 1.75 5.25 0 3 C0 2.01 0 1.02 0 0 Z " fill="#62A200" transform="translate(90,174)"/>
<path d="M0 0 C2.64752004 2.57784846 4.94432065 4.91648098 7 8 C5.1875 7.8125 5.1875 7.8125 3 7 C0 2.82142857 0 2.82142857 0 0 Z " fill="#609F00" transform="translate(81,164)"/>
</svg>
